<?xml version="1.0" encoding="UTF-8" standalone="no"?>
<svg
   xmlns:dc="http://purl.org/dc/elements/1.1/"
   xmlns:cc="http://creativecommons.org/ns#"
   xmlns:rdf="http://www.w3.org/1999/02/22-rdf-syntax-ns#"
   xmlns:svg="http://www.w3.org/2000/svg"
   xmlns="http://www.w3.org/2000/svg"
   version="1.1"
   id="svg2"
   viewBox="0 0 46.844338 32.755749"
   height="32.755749"
   width="46.844337">
  <defs
     id="defs4">
    <clipPath
       clipPathUnits="userSpaceOnUse"
       id="clipPath6064-2">
      <path
         d="m 206.518,152.901 36.676,0 0,25.405 -36.676,0 0,-25.405 z"
         id="path6066-6" />
    </clipPath>
    <linearGradient
       x1="0"
       y1="0"
       x2="1"
       y2="0"
       gradientUnits="userSpaceOnUse"
       gradientTransform="matrix(20.379337,0,0,20.379337,215.68701,158.2666)"
       spreadMethod="pad"
       id="linearGradient6046-2">
      <stop
         style="stop-opacity:1;stop-color:#b5218c"
         offset="0"
         id="stop6048-0" />
      <stop
         style="stop-opacity:1;stop-color:#b5218c"
         offset="0.2"
         id="stop6050-1" />
      <stop
         style="stop-opacity:1;stop-color:#ed1474"
         offset="0.5"
         id="stop6052-7" />
      <stop
         style="stop-opacity:1;stop-color:#f15c26"
         offset="0.75"
         id="stop6054-5" />
      <stop
         style="stop-opacity:1;stop-color:#f15c26"
         offset="1"
         id="stop6056-4" />
    </linearGradient>
    <clipPath
       clipPathUnits="userSpaceOnUse"
       id="clipPath6026-6">
      <path
         d="m 206.518,152.901 36.676,0 0,25.405 -36.676,0 0,-25.405 z"
         id="path6028-7" />
    </clipPath>
    <linearGradient
       x1="0"
       y1="0"
       x2="1"
       y2="0"
       gradientUnits="userSpaceOnUse"
       gradientTransform="matrix(-14.812713,-25.656361,25.656361,-14.812713,228.09326,181.1416)"
       spreadMethod="pad"
       id="linearGradient6014-8">
      <stop
         style="stop-opacity:1;stop-color:#ffc907"
         offset="0"
         id="stop6016-2" />
      <stop
         style="stop-opacity:1;stop-color:#f15c26"
         offset="1"
         id="stop6018-2" />
    </linearGradient>
    <linearGradient
       x1="0"
       y1="0"
       x2="1"
       y2="0"
       gradientUnits="userSpaceOnUse"
       gradientTransform="matrix(-11.908733,-8.3386116,8.3386116,-11.908733,240.51514,176.11035)"
       spreadMethod="pad"
       id="linearGradient5990-6">
      <stop
         style="stop-opacity:1;stop-color:#8dc640"
         offset="0"
         id="stop5992-9" />
      <stop
         style="stop-opacity:1;stop-color:#8dc640"
         offset="0.1"
         id="stop5994-9" />
      <stop
         style="stop-opacity:1;stop-color:#08aa4f"
         offset="0.85"
         id="stop5996-2" />
      <stop
         style="stop-opacity:1;stop-color:#08aa4f"
         offset="1"
         id="stop5998-7" />
    </linearGradient>
    <linearGradient
       x1="0"
       y1="0"
       x2="1"
       y2="0"
       gradientUnits="userSpaceOnUse"
       gradientTransform="matrix(8.0438175,0,0,8.0438175,206.74951,163.43848)"
       spreadMethod="pad"
       id="linearGradient5968-3">
      <stop
         style="stop-opacity:1;stop-color:#244599"
         offset="0"
         id="stop5970-7" />
      <stop
         style="stop-opacity:1;stop-color:#b5218c"
         offset="0.9"
         id="stop5972-0" />
      <stop
         style="stop-opacity:1;stop-color:#b5218c"
         offset="1"
         id="stop5974-0" />
    </linearGradient>
    <clipPath
       clipPathUnits="userSpaceOnUse"
       id="clipPath5948-2">
      <path
         d="m 206.518,152.901 36.676,0 0,25.405 -36.676,0 0,-25.405 z"
         id="path5950-7" />
    </clipPath>
    <linearGradient
       x1="0"
       y1="0"
       x2="1"
       y2="0"
       gradientUnits="userSpaceOnUse"
       gradientTransform="matrix(-4.6387005,-12.744693,12.744693,-4.6387005,240.09326,173.04785)"
       spreadMethod="pad"
       id="linearGradient5934-8">
      <stop
         style="stop-opacity:1;stop-color:#2cade3"
         offset="0"
         id="stop5936-1" />
      <stop
         style="stop-opacity:1;stop-color:#2cade3"
         offset="0.3"
         id="stop5938-4" />
      <stop
         style="stop-opacity:1;stop-color:#02529f"
         offset="1"
         id="stop5940-1" />
    </linearGradient>
    <clipPath
       clipPathUnits="userSpaceOnUse"
       id="clipPath5914-5">
      <path
         d="m 206.518,152.901 36.676,0 0,25.405 -36.676,0 0,-25.405 z"
         id="path5916-9" />
    </clipPath>
  </defs>
  <metadata
     id="metadata7">
    <rdf:RDF>
      <cc:Work
         rdf:about="">
        <dc:format>image/svg+xml</dc:format>
        <dc:type
           rdf:resource="http://purl.org/dc/dcmitype/StillImage" />
        <dc:title></dc:title>
      </cc:Work>
    </rdf:RDF>
  </metadata>
  <g
     transform="translate(67.705915,-879.3867)"
     id="layer1">
    <g
       transform="matrix(1.25,0,0,-1.25,-325.35391,1102.7692)"
       id="g5910">
      <g
         clip-path="url(#clipPath5914-5)"
         id="g5912">
        <g
           transform="translate(240.5249,167.5244)"
           id="g5918">
          <path
             id="path5920"
             style="fill:#244599;fill-opacity:1;fill-rule:nonzero;stroke:none"
             d="m 0,0 c -1.059,-1.943 -2.623,-3.609 -4.719,-5.159 -0.159,0.136 -0.332,0.257 -0.519,0.361 0.855,1.163 1.471,3.275 -0.052,4.53 0,0 0.408,0.625 0.687,1.047 0.279,0.421 0.141,0.738 -0.17,1.025 -1.019,0.934 -2.47,1.199 -3.634,0.987 2.369,1.881 4.889,2.792 6.756,2.87 C 1.462,5.793 1.636,3.004 0,0 m -30.699,-9.607 c -2.625,0.261 -3.106,1.969 -1.577,3.268 1.296,1.101 3.294,1.706 5.447,1.843 l 0,-2.101 c 0,-1.15 0.583,-2.486 1.836,-2.409 0.418,0 1.209,0.245 1.209,0.245 l 0.244,0.011 c -2.495,-0.765 -5.047,-1.067 -7.159,-0.857 M -1.644,7.13 C -3.609,7.067 -5.37,6.43 -6.875,5.559 -8.731,4.365 -10.562,2.646 -12.031,0.496 l -0.283,0.373 -2.242,-0.714 c 0,0 -1.018,1.599 -1.184,1.848 -0.323,0.484 -1.082,0.477 -1.394,-0.011 -0.431,-0.68 -0.621,-0.992 -0.909,-1.455 -0.364,0.509 -1.172,0.814 -1.949,0.814 l -0.322,0 0,1.597 c 0,0.347 -0.281,0.627 -0.625,0.627 l -6.942,0 c -0.346,0 -0.626,-0.28 -0.626,-0.627 l 0,-3.12 c 0,-0.346 0.28,-0.626 0.626,-0.626 l 1.052,0 0,-2.623 c -2.42,-0.183 -4.715,-0.975 -6.207,-2.428 -1.749,-1.701 -1.318,-4.256 2.813,-4.993 1.297,-0.229 2.813,-0.289 4.409,-0.137 -0.051,-0.18 -0.103,-0.366 -0.157,-0.556 -0.296,-1.058 0.103,-1.705 0.768,-2.087 1.557,-0.896 3.449,-0.816 4.623,-0.191 1.417,-1.025 3.376,-0.894 4.646,0.319 0.952,-0.7 2.218,-1.129 3.609,-1.129 1.987,0 3.721,0.703 4.644,2.003 2.414,-0.398 4.28,1.621 4.28,4.136 0,1.086 -0.268,2.037 -0.787,2.752 2.815,1.963 4.884,4.355 5.82,6.019 2.155,3.841 0.898,6.975 -3.276,6.843" />
        </g>
      </g>
    </g>
    <g
       transform="matrix(1.25,0,0,-1.25,-325.35391,1102.7692)"
       id="g5922">
      <g
         id="g5924">
        <g
           id="g5930">
          <g
             id="g5932">
            <path
               id="path5942"
               style="fill:url(#linearGradient5934-8);stroke:none"
               d="m 238.874,173.185 c -0.238,-0.008 -0.485,-0.033 -0.739,-0.07 l 0,0 c 2.597,-0.586 1.614,-7.672 -4.427,-11.237 l 0,0 0,-0.922 c 3.176,1.955 5.431,4.024 6.817,6.569 l 0,0 c 1.598,2.936 1.468,5.666 -1.445,5.666 l 0,0 c -0.067,0 -0.135,-0.002 -0.206,-0.006 m 0.858,-4.021 0.902,0 c -0.098,-0.367 -0.222,-0.727 -0.368,-1.082 l 0,0 -0.831,0 c 0.118,0.347 0.217,0.706 0.297,1.082 m -0.427,-1.45 0.8,0 c -0.211,-0.456 -0.46,-0.899 -0.743,-1.327 l 0,0 -0.692,0 c 0.244,0.42 0.456,0.862 0.635,1.327 m -2.372,-3.614 c 0.571,0.601 1.081,1.234 1.515,1.918 l 0,0 0.659,0 c -0.601,-0.83 -1.332,-1.607 -2.174,-2.314 l 0,0 0,0.396 z" />
          </g>
        </g>
      </g>
    </g>
    <g
       transform="matrix(1.25,0,0,-1.25,-325.35391,1102.7692)"
       id="g5944">
      <g
         clip-path="url(#clipPath5948-2)"
         id="g5946">
        <g
           transform="translate(228.3022,178.3066)"
           id="g5952">
          <path
             id="path5954"
             style="fill:#f58220;fill-opacity:1;fill-rule:nonzero;stroke:none"
             d="m 0,0 c -0.539,-2.887 -1.459,-5.641 -2.708,-8.202 l 0.606,0.216 C -1.337,-6.971 0.642,-3.748 1.505,0 L 0,0 Z" />
        </g>
      </g>
    </g>
    <g
       transform="matrix(1.25,0,0,-1.25,-325.35391,1102.7692)"
       id="g5956">
      <g
         id="g5958">
        <g
           id="g5964">
          <g
             id="g5966">
            <path
               id="path5976"
               style="fill:url(#linearGradient5968-3);stroke:none"
               d="m 207.022,162.345 -0.266,-0.971 c 1.636,2.1 5.247,2.764 8.049,2.632 l 0,0 0,1.428 c -4.587,-0.095 -7.22,-2.198 -7.783,-3.089" />
          </g>
        </g>
      </g>
    </g>
    <g
       transform="matrix(1.25,0,0,-1.25,-325.35391,1102.7692)"
       id="g5978">
      <g
         id="g5980">
        <g
           id="g5986">
          <g
             id="g5988">
            <path
               id="path6000"
               style="fill:url(#linearGradient5990-6);stroke:none"
               d="m 234.255,175.258 c -2.923,-1.281 -5.416,-4.352 -6.574,-6.169 l 0,0 0.813,-1.069 c 2.945,4.313 7.356,6.894 10.474,6.964 l 0,0 c 1.194,0.027 2.18,-0.196 2.637,-0.446 l 0,0 c -0.28,0.311 -0.723,0.786 -0.984,1.017 l 0,0 c -0.862,0.367 -1.764,0.534 -2.678,0.534 l 0,0 c -1.228,0 -2.478,-0.301 -3.688,-0.831 m 3.215,0.458 c 0.429,0.043 0.847,0.051 1.247,0.022 l 0,0 0.35,-0.365 c -0.398,0.01 -0.805,-0.01 -1.22,-0.06 l 0,0 -0.377,0.403 z m 1.943,-0.358 -0.325,0.342 c 0.297,-0.042 0.581,-0.104 0.851,-0.186 l 0,0 0.236,-0.242 c -0.249,0.041 -0.503,0.067 -0.762,0.086 m -4.26,-0.195 c 0.625,0.234 1.255,0.399 1.868,0.495 l 0,0 0.385,-0.411 c -0.593,-0.105 -1.203,-0.277 -1.827,-0.53 l 0,0 -0.426,0.446 z m -2.732,-1.503 c 0.711,0.542 1.478,0.979 2.258,1.314 l 0,0 0.439,-0.459 c -0.727,-0.335 -1.469,-0.776 -2.228,-1.349 l 0,0 -0.469,0.494 z" />
          </g>
        </g>
      </g>
    </g>
    <g
       transform="matrix(1.25,0,0,-1.25,-325.35391,1102.7692)"
       id="g6002">
      <g
         id="g6004">
        <g
           id="g6010">
          <g
             id="g6012">
            <path
               id="path6020"
               style="fill:url(#linearGradient6014-8);stroke:none"
               d="m 229.804,178.306 c -1.1,-4.316 -3.332,-9.248 -4.495,-11.254 l 0,0 1.21,-2.141 c 1.85,2.567 4.77,7.212 6.416,13.395 l 0,0 -3.131,0 z m 0.189,-1.806 c 0.17,0.516 0.277,0.879 0.362,1.216 l 0,0 1.113,0.002 c -0.151,-0.481 -0.272,-0.804 -0.431,-1.22 l 0,0 -1.044,0.002 z m -0.138,-0.476 1.002,0.002 c -0.247,-0.649 -0.384,-1.009 -0.601,-1.537 l 0,0 -0.948,0 c 0.225,0.6 0.361,0.983 0.547,1.535 m -0.692,-2.043 0.873,0 c -0.361,-0.798 -1.072,-2.05 -1.516,-2.746 l 0,0 -0.573,-0.202 c 0.339,0.689 0.76,1.744 1.216,2.948 m -12.266,-14.454 c -1.188,-0.473 -2.35,-1.014 -4.804,-1.289 l 0,0 c -1.552,-0.176 -3.484,-0.013 -4.344,0.509 l 0,0 c 1.116,-1.174 3.938,-1.336 5.805,-1.212 l 0,0 c 1.899,0.127 3.423,0.511 4.892,0.99 l 0,0 c 3.105,1.013 4.961,2.53 6.547,4.332 l 0,0 -1.001,1.733 c -2.726,-3.182 -4.593,-4.071 -7.095,-5.063" />
          </g>
        </g>
      </g>
    </g>
    <g
       transform="matrix(1.25,0,0,-1.25,-325.35391,1102.7692)"
       id="g6022">
      <g
         clip-path="url(#clipPath6026-6)"
         id="g6024">
        <g
           transform="translate(234.71,166.9277)"
           id="g6030">
          <path
             id="path6032"
             style="fill:#0f1239;fill-opacity:1;fill-rule:nonzero;stroke:none"
             d="M 0,0 C -0.117,0.099 -0.233,0.185 -0.385,0.267 -0.246,0.471 0.456,1.491 0.456,1.491 0.538,1.61 0.522,1.743 0.4,1.865 c -0.602,0.602 -1.63,0.86 -2.319,0.86 -0.583,0 -1.153,-0.194 -1.564,-0.529 -0.135,-0.11 -0.455,-0.448 -0.588,-0.6 l -1.497,0 c -0.154,0 -0.278,-0.124 -0.278,-0.278 l 0,-0.881 C -6.181,0.879 -6.554,1.369 -6.6,1.432 -6.69,1.546 -6.808,1.596 -6.962,1.596 l -1.227,0 c -0.154,0 -0.278,-0.124 -0.278,-0.278 l 0,-2.475 c -0.888,1.539 -1.784,3.089 -1.844,3.188 -0.145,0.24 -0.476,0.23 -0.641,-0.031 -0.057,-0.09 -0.635,-1.075 -1.313,-2.231 -0.076,0.34 -0.234,0.641 -0.505,0.919 -0.438,0.45 -1.078,0.631 -1.832,0.631 l -0.556,0 -0.022,0 0,1.679 c 0,0.152 -0.124,0.276 -0.278,0.276 l -6.133,0 c -0.155,0 -0.278,-0.124 -0.278,-0.276 l 0,-2.204 c 0,-0.154 0.123,-0.278 0.278,-0.278 l 1.686,0 0,-5.459 c 0,-0.154 0.124,-0.278 0.279,-0.278 l 5.937,0 c 0.261,0.199 0.526,0.416 0.796,0.652 l 0.958,0 c 0.099,0 0.19,0.052 0.24,0.138 l 0.757,1.313 0.696,-1.313 c 0.049,-0.086 0.141,-0.138 0.24,-0.138 l 0.98,0 0,-0.09 c 0,-0.154 0.124,-0.278 0.277,-0.278 l 2.262,0 c 0.153,0 0.276,0.124 0.276,0.278 l 0.015,0.943 0.847,-1.111 c 0.052,-0.069 0.134,-0.11 0.22,-0.11 l 1.798,0 c 0.154,0 0.278,0.125 0.278,0.278 l 0,0.789 c 0.245,-0.053 0.498,-0.081 0.755,-0.081 0.653,0 1.189,0.144 1.64,0.492 0.423,0.327 0.5,0.426 0.777,0.771 0.273,0.342 0.46,0.825 0.46,1.355 C 0.583,-0.802 0.389,-0.335 0,0" />
        </g>
      </g>
    </g>
    <g
       transform="matrix(1.25,0,0,-1.25,-325.35391,1102.7692)"
       id="g6034">
      <g
         id="g6036">
        <g
           id="g6042">
          <g
             id="g6044">
            <path
               id="path6058"
               style="fill:url(#linearGradient6046-2);stroke:none"
               d="m 215.744,159.679 c 0,-0.963 0.547,-1.738 1.541,-2.184 l 0,0 c 0.551,-0.244 0.551,-0.358 0.551,-0.439 l 0,0 c 0,-0.07 -0.043,-0.214 -0.304,-0.214 l 0,0 c -0.326,0 -0.595,0.125 -0.702,0.196 l 0,0 c -0.088,0.06 -0.191,0.091 -0.295,0.091 l 0,0 c -0.055,0 -0.113,-0.008 -0.167,-0.028 l 0,0 c -0.156,-0.053 -0.278,-0.175 -0.328,-0.332 l 0,0 -0.333,-1.013 c -0.072,-0.223 0.011,-0.468 0.207,-0.598 l 0,0 c 0.46,-0.307 1.083,-0.456 1.907,-0.456 l 0,0 c 0.993,0 1.803,0.454 2.243,1.172 l 0,0 c 0.106,-0.831 0.742,-1.373 1.649,-1.373 l 0,0 c 0.388,0 0.663,0.107 0.763,0.154 l 0,0 c 0.188,0.086 0.304,0.271 0.304,0.473 l 0,0 c 0,0 0,0.783 0,0.853 l 0,0 c 0.279,-0.18 0.735,-0.321 1.383,-0.321 l 0,0 c 0.661,0 1.22,0.094 1.666,0.279 l 0,0 c 0.379,-0.814 1.159,-1.284 2.218,-1.284 l 0,0 c 0.746,0 1.307,0.113 1.765,0.356 l 0,0 c 0.082,0.044 0.148,0.108 0.195,0.181 l 0,0 c 0.071,-0.036 0.15,-0.058 0.235,-0.058 l 0,0 0.889,0 c 0.287,0 0.521,0.234 0.521,0.521 l 0,0 0,1.67 c 0.435,-0.577 1.095,-0.906 1.916,-0.906 l 0,0 c 1.51,0 2.484,1.109 2.484,2.831 l 0,0 c 0,1.714 -0.977,2.823 -2.492,2.823 l 0,0 c -1.142,0 -1.977,-0.639 -2.313,-1.697 l 0,0 c -0.159,0.104 -0.352,0.165 -0.561,0.165 l 0,0 c -0.225,0 -0.43,-0.075 -0.597,-0.193 l 0,0 0,0.696 c 0,0.289 -0.233,0.522 -0.521,0.522 l 0,0 -1.144,0 c -0.288,0 -0.522,-0.233 -0.522,-0.522 l 0,0 0,-1.249 -0.062,0 c -0.629,0 -1.167,-0.238 -1.562,-0.644 l 0,0 0,0.92 c 0,0.287 -0.234,0.522 -0.522,0.522 l 0,0 -1.105,0 c -0.228,0 -0.421,-0.146 -0.493,-0.348 l 0,0 c -0.072,0.202 -0.264,0.348 -0.492,0.348 l 0,0 -1.106,0 c -0.207,0 -0.383,-0.121 -0.469,-0.297 l 0,0 c -0.032,0.101 -0.252,0.28 -0.55,0.201 l 0,0 c -0.298,-0.079 -1.105,-0.283 -1.105,-0.283 l 0,0 c -0.229,-0.06 -0.39,-0.268 -0.39,-0.505 l 0,0 0,-0.341 c 0,-0.336 -0.477,-0.401 -0.632,-0.307 l 0,0 c -0.241,0.143 -0.431,0.254 -0.731,0.392 l 0,0 c -0.384,0.175 -0.493,0.301 -0.485,0.441 l 0,0 c 0.011,0.176 0.152,0.271 0.374,0.26 l 0,0 c 0.222,-0.011 0.396,-0.084 0.534,-0.167 l 0,0 c 0.132,-0.079 0.351,-0.133 0.485,-0.079 l 0,0 c 0.158,0.063 0.241,0.141 0.309,0.35 l 0,0 0.263,0.796 c 0.078,0.224 -0.007,0.473 -0.203,0.603 l 0,0 c -0.433,0.289 -1.049,0.447 -1.736,0.447 l 0,0 c -1.437,0 -2.48,-1.02 -2.48,-2.425" />
          </g>
        </g>
      </g>
    </g>
    <g
       transform="matrix(1.25,0,0,-1.25,-325.35391,1102.7692)"
       id="g6060">
      <g
         clip-path="url(#clipPath6064-2)"
         id="g6062">
        <g
           transform="translate(217.8203,155.2246)"
           id="g6068">
          <path
             id="path6070"
             style="fill:#ffffff;fill-opacity:1;fill-rule:nonzero;stroke:none"
             d="m 0,0 c -0.763,0 -1.267,0.134 -1.617,0.368 l 0.331,1.015 c 0.199,-0.135 0.567,-0.287 0.998,-0.287 0.512,0 0.826,0.296 0.826,0.736 0,0.394 -0.234,0.638 -0.862,0.916 -0.962,0.431 -1.231,1.105 -1.231,1.705 0,1.042 0.755,1.904 1.959,1.904 0.664,0 1.15,-0.161 1.446,-0.359 L 1.544,5.109 C 1.329,5.244 0.997,5.379 0.619,5.379 0.134,5.379 -0.126,5.109 -0.126,4.67 -0.126,4.22 0.188,3.995 0.709,3.762 1.904,3.223 2.074,2.568 2.074,1.939 2.074,0.825 1.221,0 0,0" />
        </g>
        <g
           transform="translate(221.7134,155.0225)"
           id="g6072">
          <path
             id="path6074"
             style="fill:#ffffff;fill-opacity:1;fill-rule:nonzero;stroke:none"
             d="m 0,0 c -0.799,0 -1.146,0.517 -1.146,1.104 l 0,2.054 -0.418,0 0,0.714 0.418,0 0,0.815 1.104,0.283 0,-1.098 0.587,0 0,-0.714 -0.587,0 0,-1.969 c 0,-0.29 0.105,-0.446 0.354,-0.446 0.092,0 0.141,0.016 0.233,0.042 l 0,-0.68 C 0.453,0.063 0.255,0 0,0" />
        </g>
        <g
           transform="translate(224.1626,156.1816)"
           id="g6076">
          <path
             id="path6078"
             style="fill:#ffffff;fill-opacity:1;fill-rule:nonzero;stroke:none"
             d="m 0,0 c -1.078,0 -1.602,0.404 -1.602,1.325 l 0,2.565 1.105,0 0,-2.643 c 0,-0.276 0.149,-0.502 0.525,-0.502 0.198,0 0.341,0.027 0.461,0.092 l 0,3.053 1.105,0 0,-3.592 C 1.239,0.12 0.714,0 0,0" />
        </g>
        <g
           transform="translate(228.4233,158.5869)"
           id="g6080">
          <path
             id="path6082"
             style="fill:#ffffff;fill-opacity:1;fill-rule:nonzero;stroke:none"
             d="m 0,0 c -0.096,0.029 -0.199,0.044 -0.316,0.044 -0.636,0 -0.879,-0.546 -0.879,-1.365 0,-0.864 0.258,-1.358 0.84,-1.358 0.156,0 0.275,0.014 0.355,0.059 L 0,0 Z m -0.375,-3.409 c -1.204,0 -1.957,0.708 -1.957,2.036 0,1.277 0.723,2.059 1.749,2.059 0.237,0 0.435,-0.03 0.583,-0.067 l 0,1.838 1.144,0 0,-5.572 C 0.782,-3.307 0.311,-3.409 -0.375,-3.409" />
        </g>
        <path
           id="path6084"
           style="fill:#ffffff;fill-opacity:1;fill-rule:nonzero;stroke:none"
           d="m 230.242,158.722 0.888,0 0,-3.066 -0.888,0 0,3.066 z m 0.445,0.466 c -0.262,0 -0.473,0.181 -0.473,0.416 0,0.226 0.211,0.415 0.473,0.415 0.261,0 0.471,-0.189 0.471,-0.415 0,-0.235 -0.21,-0.416 -0.471,-0.416" />
        <g
           transform="translate(233.5679,160.751)"
           id="g6086">
          <path
             id="path6088"
             style="fill:#ffffff;fill-opacity:1;fill-rule:nonzero;stroke:none"
             d="m 0,0 c -0.568,0 -0.684,-0.691 -0.684,-1.484 0,-0.8 0.123,-1.453 0.684,-1.453 0.569,0 0.686,0.653 0.686,1.453 C 0.686,-0.691 0.569,0 0,0 m 0,-3.812 c -1.287,0 -1.962,0.983 -1.962,2.311 0,1.327 0.675,2.3 1.954,2.3 1.295,0 1.972,-0.973 1.972,-2.3 0,-1.328 -0.677,-2.311 -1.964,-2.311" />
        </g>
        <g
           transform="translate(234.5679,166.7119)"
           id="g6090">
          <path
             id="path6092"
             style="fill:#ffffff;fill-opacity:1;fill-rule:nonzero;stroke:none"
             d="m 0,0 c -0.27,0.231 -0.654,0.405 -1.214,0.545 -0.151,0.037 -0.655,0.181 -0.778,0.38 -0.058,0.094 -0.063,0.215 -0.009,0.312 0.163,0.299 0.619,0.202 0.916,0.092 0.209,-0.078 0.522,-0.257 0.736,-0.415 0.051,0.061 0.62,0.895 0.688,0.998 C -0.303,2.442 -0.93,2.634 -1.667,2.634 -2.198,2.633 -2.657,2.48 -2.995,2.193 -3.127,2.082 -3.234,1.955 -3.318,1.812 l 0.133,0 c 0.153,0 0.278,-0.125 0.278,-0.278 l 0,-1.744 c 0.445,-0.288 1.16,-0.432 1.16,-0.432 0.127,-0.031 0.258,-0.062 0.382,-0.123 0.215,-0.105 0.328,-0.273 0.328,-0.408 0,-0.135 -0.048,-0.205 -0.147,-0.269 -0.075,-0.05 -0.219,-0.112 -0.489,-0.093 -0.336,0.024 -0.827,0.228 -1.234,0.571 l 0,-1.461 c 0.448,-0.212 0.923,-0.309 1.414,-0.309 0.567,0 1.048,0.146 1.393,0.427 0.357,0.287 0.553,0.717 0.553,1.229 C 0.453,-0.59 0.301,-0.26 0,0" />
        </g>
        <g
           transform="translate(229.8984,168.2158)"
           id="g6094">
          <path
             id="path6096"
             style="fill:#ffffff;fill-opacity:1;fill-rule:nonzero;stroke:none"
             d="M 0,0 0,-2.632 -2.002,0 l -1.174,0 0,-3.273 c 0.469,-0.816 0.891,-1.546 1.125,-1.952 l 0.363,0 0,2.733 2.082,-2.733 1.095,0 L 1.489,0 0,0 Z" />
        </g>
        <g
           transform="translate(217.2988,162.7119)"
           id="g6098">
          <path
             id="path6100"
             style="fill:#ffffff;fill-opacity:1;fill-rule:nonzero;stroke:none"
             d="m 0,0 -2.001,0 0,5.535 -1.868,0 0,1.659 5.754,0 0,-1.659 L 0,5.535 0,0 Z" />
        </g>
        <g
           transform="translate(224.2881,168.6709)"
           id="g6102">
          <path
             id="path6104"
             style="fill:#ffffff;fill-opacity:1;fill-rule:nonzero;stroke:none"
             d="m 0,0 -2.55,-4.418 0.439,-0.894 0.975,0 1.136,1.967 1.136,-1.967 1.93,0 L 0,0 Z" />
        </g>
        <g
           transform="translate(219.3013,166.7334)"
           id="g6106">
          <path
             id="path6108"
             style="fill:#ffffff;fill-opacity:1;fill-rule:nonzero;stroke:none"
             d="m 0,0 0,-1.232 0.674,0 c 0.247,0.005 0.434,0.063 0.559,0.17 0.119,0.102 0.179,0.244 0.184,0.433 0,0.216 -0.065,0.361 -0.194,0.466 C 1.101,-0.066 0.918,-0.008 0.657,0 L 0,0 Z m 2.924,-4.021 -1.651,0 -0.775,1.605 -0.498,0 0,-1.605 -1.489,0 0,5.227 2.398,0 c 0.653,0 1.184,-0.185 1.536,-0.539 0.302,-0.303 0.461,-0.731 0.461,-1.219 0,-0.225 -0.019,-0.376 -0.057,-0.527 -0.196,-0.757 -0.86,-1.038 -0.86,-1.038 l 0.935,-1.904 z" />
        </g>
        <g
           transform="translate(220.3462,164.3164)"
           id="g6110">
          <path
             id="path6112"
             style="fill:#2cade3;fill-opacity:1;fill-rule:nonzero;stroke:none"
             d="m 0,0 -0.259,0 0.668,-1.387 0.258,0 L 0,0 Z" />
        </g>
        <g
           transform="translate(215.8154,163.0947)"
           id="g6114">
          <path
             id="path6116"
             style="fill:#2cade3;fill-opacity:1;fill-rule:nonzero;stroke:none"
             d="m 0,0 0,4.579 -0.259,0.447 0,-5.191 1.518,0 L 1.094,0 0,0 Z" />
        </g>
        <g
           transform="translate(218.3286,163.0947)"
           id="g6118">
          <path
             id="path6120"
             style="fill:#2cade3;fill-opacity:1;fill-rule:nonzero;stroke:none"
             d="m 0,0 0,4.146 -0.259,0.449 0,-4.76 1.013,0 L 0.589,0 0,0 Z" />
        </g>
        <g
           transform="translate(224.415,165.543)"
           id="g6122">
          <path
             id="path6124"
             style="fill:#2cade3;fill-opacity:1;fill-rule:nonzero;stroke:none"
             d="m 0,0 1.138,-1.966 0.259,0 L 0.128,0.224 0,0 Z" />
        </g>
        <g
           transform="translate(224.189,168.0498)"
           id="g6126">
          <path
             id="path6128"
             style="fill:#2cade3;fill-opacity:1;fill-rule:nonzero;stroke:none"
             d="M 0,0 -2.333,-4.039 -2.213,-4.28 0,-0.447 0,0 Z" />
        </g>
        <g
           transform="translate(228.229,166.4287)"
           id="g6130">
          <path
             id="path6132"
             style="fill:#2cade3;fill-opacity:1;fill-rule:nonzero;stroke:none"
             d="m 0,0 0,-0.368 2.179,-2.852 0.274,0 L 0,0 Z" />
        </g>
        <g
           transform="translate(215.1313,168.6279)"
           id="g6134">
          <path
             id="path6136"
             style="fill:#2cade3;fill-opacity:1;fill-rule:nonzero;stroke:none"
             d="m 0,0 -1.184,0 0,0.822 -0.258,0.258 0,-1.244 1.607,0 L 0,0 Z" />
        </g>
        <g
           transform="translate(231.6567,167.0459)"
           id="g6138">
          <path
             id="path6140"
             style="fill:#2cade3;fill-opacity:1;fill-rule:nonzero;stroke:none"
             d="m 0,0 c 0,0 0.275,-0.228 0.749,-0.393 0.263,-0.092 0.449,-0.128 0.738,-0.212 0.339,-0.099 0.827,-0.351 0.827,-0.875 0,-0.55 -0.603,-0.672 -0.768,-0.588 0.432,0.041 0.56,0.365 0.545,0.582 -0.017,0.191 -0.077,0.463 -0.614,0.65 -0.108,0.038 -0.433,0.11 -0.679,0.184 C 0.382,-0.527 0.14,-0.361 0,-0.282 L 0,0 Z" />
        </g>
        <g
           transform="translate(233.3535,160.7393)"
           id="g6142">
          <path
             id="path6144"
             style="fill:#214497;fill-opacity:1;fill-rule:nonzero;stroke:none"
             d="m 0,0 c -0.097,-0.058 -0.174,-0.135 -0.232,-0.22 l 0,0.001 C -0.347,-0.382 -0.41,-0.62 -0.442,-0.897 0.533,-0.461 1.456,0.05 2.317,0.604 L 1.763,1.133 C 1.208,0.75 0.62,0.374 0,0" />
        </g>
      </g>
    </g>
  </g>
</svg>
